# xmcd
#
# Track frame offsets:
#	150
#	12984
#	30131
#	50487
#	64473
#	76172
#	91442
#	104328
#	117442
#	131857
#	144979
#	159799
#	175112
#	189566
#	204265
#	219670
#	237410
#	251117
#	262231
#
# Disc length: 3696 seconds
#
# Revision: 1
# Processed by: cddbd v1.5.2PL0 Copyright (c) Steve Scherf et al.
# Submitted via: audiograbber 1.83.01
#
DISCID=0d0e6e13
DTITLE=Various Artist - Hc214
DYEAR=2014
DGENRE=Country
TTITLE0=Aldean, Jason - When She Says Baby
TTITLE1=Moore, Kip - Young Love (Radio Edit
TTITLE2=Strait, George - I Got A Car
TTITLE3=Farr, Tyler - Whiskey In My Water
TTITLE4=High Valley - Rescue You
TTITLE5=Crow, Sheryl - Callin' Me When I'm Lonely
TTITLE6=Blackjack Billy - The Booze Cruise
TTITLE7=Pritchett, Aaron - You Should Be
TTITLE8=Mathews, Jake - A Woman And A Song
TTITLE9=Keith, Toby - Shut Up And Hold On
TTITLE10=Mccreery, Scotty - Feelin' It
TTITLE11=One More Girl - Love Like Mine
TTITLE12=Bush Hawg - More Than Corn
TTITLE13=Treasures - Gonna Wait
TTITLE14=Paisley, Brad - The Mona Lisa (Radio Edit
TTITLE15=Kenny Rogers Ft Dolly Parton - You Can't Make Old Friends
TTITLE16=Autumn Hill - It Ain't Christmas
TTITLE17=Robertson Family - Duck The Halls
TTITLE18=Ladies Of The Canyon - Make Room In Your Heart
EXTD=
EXTT0=
EXTT1=
EXTT2=
EXTT3=
EXTT4=
EXTT5=
EXTT6=
EXTT7=
EXTT8=
EXTT9=
EXTT10=
EXTT11=
EXTT12=
EXTT13=
EXTT14=
EXTT15=
EXTT16=
EXTT17=
EXTT18=
PLAYORDER=
